# xmcd
#
# Track frame offsets:
#	150
#	16538
#	31988
#	48765
#	67649
#	88294
#	108928
#	126446
#	143071
#	155863
#	175649
#	198098
#	213921
#	232484
#	252516
#	280275
#
# Disc length: 4440 seconds
#
# Revision: 0
# Processed by: cddbd v1.5.1PL2 Copyright (c) Steve Scherf et al.
# Submitted via: dBpowerAMP V4.0
#
DISCID=dc115610
DTITLE=Joe - And Then...
DYEAR=2004
DGENRE=R&B
TTITLE0=Ride Wit U featuring G Unit
TTITLE1=And Then...
TTITLE2=More and More
TTITLE3=Sweeter Than Sugar
TTITLE4=Priceless
TTITLE5=Jeep
TTITLE6=You Drop Your Dime
TTITLE7=Make You My baby
TTITLE8=Street Dreams
TTITLE9=It Ain't Like That
TTITLE10=Another Used To Be
TTITLE11=Bedroom
TTITLE12=Testify
TTITLE13=Hey Mami
TTITLE14=I Remember featuring Freeway
TTITLE15=DATA
EXTD=
EXTT0=
EXTT1=
EXTT2=
EXTT3=
EXTT4=
EXTT5=
EXTT6=
EXTT7=
EXTT8=
EXTT9=
EXTT10=
EXTT11=
EXTT12=
EXTT13=
EXTT14=
EXTT15=
PLAYORDER=
